<svg width="382" height="329" viewBox="0 0 382 329" fill="none" xmlns="http://www.w3.org/2000/svg">
<g clip-path="url(#clip0_11_107)">
<path d="M368.25 269.21H13.7496C6.16821 269.21 0 262.939 0 255.229V211.843H382V255.229C382 262.939 375.832 269.21 368.25 269.21Z" fill="#E6E6E6"/>
<path d="M236.881 261.953H146.479V327.614H236.881V261.953Z" fill="#E6E6E6"/>
<path d="M242.318 319.32H141.041V327.614H242.318V319.32Z" fill="#E6E6E6"/>
<path d="M381.66 230.159H0V9.5947C0 4.30429 4.23295 0 9.43569 0H372.224C377.427 0 381.66 4.30429 381.66 9.5947V230.159Z" fill="#3F3D56"/>
<path d="M372.484 10.022H8.83643V218.064H372.484V10.022Z" fill="white"/>
<path d="M79.2609 134.02C82.0442 131.682 85.4869 131.247 86.9502 133.048C88.4135 134.849 87.3433 138.205 84.5587 140.544C83.459 141.494 82.1515 142.162 80.7458 142.493L68.8298 152.25L64.4462 146.466L76.6586 137.461C77.2433 136.119 78.1356 134.94 79.2609 134.02Z" fill="#FFB6B6"/>
<path d="M10.3882 156.035C10.3822 155.604 10.3861 151.84 13.1265 149.461C16.2744 146.728 20.7163 147.834 22.2742 148.222C25.8731 149.118 26.1683 150.688 29.548 152.301C35.8712 155.319 27.9485 153.774 31.711 152.806C33.0133 152.471 51.7495 151.15 56.4133 148.231C65.4838 142.554 71.6641 139.112 71.6641 139.112L75.7043 147.329C75.7043 147.329 69.8622 155.589 61.6399 161.708C53.2056 167.985 48.9885 171.124 42.5797 172.336C42.0278 172.441 28.4543 174.797 17.5219 166.492C15.0283 164.598 10.4594 161.127 10.3882 156.035Z" fill="#6C63FF"/>
<path d="M22.9211 135.139C30.6942 135.139 36.9955 128.731 36.9955 120.827C36.9955 112.923 30.6942 106.515 22.9211 106.515C15.148 106.515 8.84668 112.923 8.84668 120.827C8.84668 128.731 15.148 135.139 22.9211 135.139Z" fill="#FFB6B6"/>
<path d="M133.147 216.978L118.652 201.891L111.17 209.827L121.969 224.293L132.68 225.539L133.147 216.978Z" fill="#FFB6B6"/>
<path d="M50.3812 188.686C51.229 188.758 53.9232 189.307 56.4983 187.866C58.2557 186.883 59.157 185.421 59.4614 184.956C63.2381 179.188 77.7337 170.194 90.7432 169.641C93.6893 169.515 95.6285 169.862 97.3911 170.797C99.8904 172.121 100.888 174.019 104.06 178.464C105.795 180.896 107.714 183.187 109.47 185.603C119.749 199.747 123.646 200.858 123.247 205.393C122.805 210.424 117.469 215.197 113.922 214.646C112.47 214.421 111.907 213.394 109.967 211.315C104.277 205.219 101.923 206.345 97.8717 201.676C93.1421 196.224 93.7612 191.704 91.2936 191.53C89.0053 191.368 88.0329 195.224 83.1476 200.346C80.9121 202.69 79.3203 203.765 74.4706 207.186C55.585 220.509 55.2836 221.445 51.4723 222.508C49.8047 222.973 37.9694 226.272 33.7533 221.021C27.1556 212.805 42.7421 188.041 50.3812 188.686Z" fill="#2F2E41"/>
<path d="M128.715 220.387C129.781 219.9 131.028 219.331 131.429 218.022C131.7 217.137 131.544 216.045 130.983 215.29C130.336 214.42 129.378 214.305 129.417 214.151C129.476 213.916 131.741 214.008 134.227 214.902C134.697 215.071 136.822 215.86 139.526 218.007C141.693 219.727 141.401 220.072 142.76 221.063C146.93 224.107 150.841 221.708 153.098 224.563C153.969 225.665 154.34 227.229 153.974 228.494C153.238 231.034 149.659 231.908 147.702 232.359C142.991 233.446 139.426 232.559 135.702 231.921C123.039 229.751 115.925 231.727 114.973 228.744C114.792 228.18 115.085 228.228 116.062 224.085C117.025 219.995 116.994 218.873 117.814 218.545C119.05 218.052 119.879 220.294 122.991 221.062C125.749 221.742 128.025 220.703 128.715 220.387Z" fill="#2F2E41"/>
<path d="M107.377 266.334L103.715 245.573L93.1414 247.868L94.0886 266.004L102.264 273.151L107.377 266.334Z" fill="#FFB6B6"/>
<path d="M54.5166 195.664C55.1786 196.208 57.1048 198.2 60.0311 198.479C62.0282 198.669 63.5814 197.974 64.09 197.763C70.4001 195.147 87.3613 195.981 98.4317 202.952C100.939 204.53 102.352 205.925 103.294 207.704C104.631 210.228 104.408 212.368 104.578 217.857C104.67 220.859 104.994 223.851 105.112 226.853C105.807 244.426 108.418 247.57 105.584 251.095C102.44 255.006 95.3883 255.908 92.7578 253.427C91.6806 252.411 91.7823 251.24 91.3247 248.412C89.9829 240.119 87.413 239.706 86.6395 233.53C85.7363 226.318 88.7447 222.932 86.7993 221.378C84.9953 219.938 82.0612 222.573 75.1901 224.022C72.046 224.685 70.1351 224.666 64.233 224.728C41.2489 224.968 40.4824 225.57 36.742 224.273C35.1055 223.706 23.4902 219.678 22.9012 212.926C21.9795 202.36 48.552 190.768 54.5166 195.664Z" fill="#2F2E41"/>
<path d="M101.828 266.624C102.979 266.83 104.324 267.071 105.379 266.217C106.093 265.639 106.566 264.646 106.519 263.702C106.464 262.612 105.735 261.97 105.852 261.865C106.03 261.704 107.854 263.073 109.418 265.233C109.713 265.64 111.036 267.508 112.088 270.828C112.931 273.488 112.499 273.607 113.076 275.203C114.845 280.103 119.407 280.351 119.697 284.002C119.81 285.411 119.253 286.917 118.251 287.755C116.24 289.436 112.795 288.116 110.928 287.372C106.429 285.581 103.969 282.811 101.24 280.157C91.9604 271.132 84.9821 268.704 85.8415 265.692C86.0042 265.122 86.2199 265.329 89.3157 262.458C92.3712 259.625 92.9652 258.678 93.8251 258.875C95.1195 259.173 94.5677 261.502 96.7191 263.914C98.6255 266.051 101.082 266.491 101.828 266.624Z" fill="#2F2E41"/>
<path d="M24.8399 123.563C25.3878 121.57 24.6996 120.844 25.4011 119.949C25.4011 119.949 25.6833 119.589 28.2069 118.617C27.4623 114.225 28.0198 113.482 28.0198 113.482C28.6624 112.626 29.9495 112.419 30.8257 112.531C32.6789 112.768 33.0069 114.471 34.1927 114.433C35.8307 114.38 37.7954 111.046 37.1856 108.156C36.6881 105.799 34.5433 104.048 34.0056 104.352C33.4725 104.653 31.5535 103.325 30.8257 103.591C30.3287 103.773 27.9892 103.531 27.4587 103.781C26.8794 104.055 25.2203 105.756 25.0617 105.542C23.9595 104.052 23.9829 103.532 23.3435 103.211C22.2103 102.642 20.9784 103.693 18.8541 104.732C14.4835 106.87 13.2037 105.595 11.1848 107.395C10.165 108.305 9.61817 110.043 8.56606 113.482C7.0947 118.291 6.35902 120.696 7.06962 122.992C7.7943 125.334 8.86147 124.824 10.4366 128.128C12.19 131.805 11.5857 133.943 13.2425 134.785C14.5229 135.436 16.5807 135.022 17.3577 133.834C18.6879 131.801 15.2497 129.05 16.4224 125.845C17.1423 123.878 19.3629 122.387 20.7247 122.802C22.2645 123.272 22.3779 126.079 23.3435 126.036C24.1703 125.998 24.7444 123.91 24.8399 123.563Z" fill="#2F2E41"/>
<path d="M14.1777 137.258C17.0579 133.974 28.7893 137.373 29.8904 142.584C30.3433 144.727 28.6713 145.632 29.1422 148.1C29.8308 151.709 33.7301 151.463 36.6244 155.137C40.7334 160.354 36.5003 165.453 41.1137 174.158C42.0996 176.018 42.9305 177.586 44.6678 179.103C48.6545 182.585 52.3647 181.391 54.3947 184.62C55.9127 187.034 55.289 190.009 55.1429 190.706C54.5438 193.564 52.9201 194.261 51.7759 196.603C49.8723 200.499 52.0276 203.36 52.15 208.015C52.3031 213.84 49.2591 221.914 43.1713 224.563C36.332 227.539 28.0833 222.61 24.0917 217.716C21.7099 214.795 21.0185 212.101 19.9764 208.776C15.3195 193.915 12.6885 195.259 9.12722 183.478C5.05598 170.011 4.25563 154.233 9.12722 149.241C9.77292 148.579 11.5499 147.05 12.6813 144.295C14.2037 140.589 12.8885 138.728 14.1777 137.258Z" fill="#6C63FF"/>
<path d="M56.7346 213.699C58.9676 216.584 59.3137 220.094 57.5079 221.538C55.7021 222.983 52.4287 221.815 50.1953 218.929C49.2875 217.789 48.6616 216.444 48.3699 215.007L39.0604 202.661L43.8708 198.93L53.4135 210.971C54.7189 211.598 55.8577 212.533 56.7346 213.699Z" fill="#FFB6B6"/>
<path d="M22.6401 149.772C23.0543 149.678 26.6788 148.914 29.5283 151.157C32.8016 153.733 32.643 158.38 32.5874 160.01C32.459 163.776 31.0078 164.39 30.1446 168.083C28.5294 174.993 31.6053 181.415 33.3046 184.963C33.8928 186.191 35.7826 189.949 39.5443 193.996C46.8604 201.867 53.3882 206.009 53.3882 206.009L46.3755 212.347C46.3755 212.347 35.205 208.885 27.636 201.949C19.8719 194.834 7.93201 169.659 5.45685 163.527C5.24369 162.999 8.26306 171.585 14.0281 159.007C15.3431 156.139 17.7525 150.882 22.6401 149.772Z" fill="#6C63FF"/>
<path d="M202.124 143.867L193.75 139.834C197.185 144.708 200.144 152.319 201.728 158.376C204.411 152.734 208.735 145.831 213.015 141.707L204.165 144.022C209.618 116.847 230.128 97.3383 253.615 97.3383L253.947 96.3567C229.415 96.3567 207.691 115.595 202.124 143.867Z" fill="#3F3D56"/>
<path d="M240.661 185.274H187.757C185.513 185.274 183.688 183.417 183.688 181.135C183.688 178.854 185.513 176.997 187.757 176.997H240.661C242.905 176.997 244.731 178.854 244.731 181.135C244.731 183.417 242.905 185.274 240.661 185.274Z" fill="#6C63FF"/>
<path d="M311.057 185.274H258.153C255.909 185.274 254.083 183.417 254.083 181.135C254.083 178.854 255.909 176.997 258.153 176.997H311.057C313.301 176.997 315.126 178.854 315.126 181.135C315.126 183.417 313.301 185.274 311.057 185.274Z" fill="#E6E6E6"/>
<path d="M279.738 72.6995H228.313C227.016 72.6995 225.961 71.6268 225.961 70.3085C225.961 68.9902 227.016 67.918 228.313 67.918H279.738C281.035 67.918 282.089 68.9902 282.089 70.3085C282.089 71.6268 281.035 72.6995 279.738 72.6995Z" fill="#3F3D56"/>
<path d="M307.334 98.2073H200.717C199.421 98.2073 198.366 97.1346 198.366 95.8163C198.366 94.498 199.421 93.4258 200.717 93.4258H307.334C308.63 93.4258 309.685 94.498 309.685 95.8163C309.685 97.1346 308.63 98.2073 307.334 98.2073Z" fill="#3F3D56"/>
<path d="M23.116 328.226C23.116 328.655 23.4552 329 23.8776 329H358.122C358.545 329 358.884 328.655 358.884 328.226C358.884 327.796 358.545 327.451 358.122 327.451H23.8776C23.4552 327.451 23.116 327.796 23.116 328.226Z" fill="#3F3D56"/>
<path d="M105.19 144.658C105.099 144.658 105.009 144.655 104.918 144.649C99.5618 144.299 81.2359 141.663 70.2955 122.428C69.3939 120.844 69.5715 118.83 70.7371 117.418L90.9984 92.8706C91.8269 91.8668 93.1068 91.2884 94.4031 91.3043C95.2991 91.326 97.4203 91.5561 97.8324 93.2189C100.266 103.043 110.544 114.594 122.904 116.125C124.157 116.28 125.163 117.416 125.595 119.165C125.931 120.526 125.62 121.93 124.74 123.015L108.509 143.057C107.685 144.075 106.475 144.658 105.19 144.658ZM94.3253 92.2917C93.3353 92.2917 92.3722 92.7428 91.7427 93.5055L71.4817 118.053C70.5775 119.148 70.439 120.707 71.1363 121.933C81.8355 140.744 99.7458 143.321 104.98 143.663C106.049 143.736 107.075 143.273 107.759 142.429L123.991 122.387C124.672 121.546 124.913 120.46 124.652 119.406C124.398 118.374 123.774 117.228 122.787 117.105C110.018 115.524 99.4026 103.601 96.8902 93.4601C96.6867 92.6391 95.4615 92.3183 94.383 92.2922C94.3638 92.2917 94.3446 92.2917 94.3253 92.2917Z" fill="#3F3D56"/>
<path d="M82.5737 123.235L97.1812 108.091C98.1797 107.055 96.6153 105.462 95.6156 106.499L81.0081 121.643C80.0096 122.679 81.574 124.272 82.5737 123.235Z" fill="#E6E6E6"/>
<path d="M91.3902 127.502C95.4217 123.828 98.925 119.574 101.794 114.905C102.551 113.673 100.636 112.542 99.8818 113.769C97.1085 118.282 93.7216 122.358 89.8246 125.91C88.7613 126.879 90.3314 128.467 91.3902 127.502Z" fill="#E6E6E6"/>
<path d="M99.3363 132.611C103.007 128.477 106.131 123.862 108.591 118.885C109.229 117.594 107.32 116.452 106.679 117.749C104.303 122.558 101.318 127.024 97.7707 131.019C96.818 132.092 98.3791 133.689 99.3363 132.611Z" fill="#E6E6E6"/>
<path d="M93.078 105.346C101.212 105.346 107.805 98.7824 107.805 90.686C107.805 82.5896 101.212 76.0261 93.078 76.0261C84.9444 76.0261 78.3508 82.5896 78.3508 90.686C78.3508 98.7824 84.9444 105.346 93.078 105.346Z" fill="#6C63FF"/>
<path d="M100.741 97.6399C98.476 91.9773 96.211 86.3148 93.9461 80.6522C93.6332 79.8701 92.6533 79.8423 92.348 80.6522C90.11 86.5889 88.6476 92.7837 87.9445 99.0999C87.8248 100.176 89.483 100.167 89.6018 99.0999C89.8769 96.6283 90.2854 94.1751 90.8097 91.7481C92.6761 91.8476 94.5578 91.6347 96.3589 91.1277C97.2869 93.4478 98.215 95.7678 99.143 98.0879C99.5395 99.0793 101.143 98.6457 100.741 97.6399ZM91.1855 90.0821C91.7437 87.7587 92.413 85.4629 93.1895 83.2039L95.7295 89.554C94.2417 89.9511 92.7202 90.1277 91.1855 90.0821Z" fill="white"/>
</g>
<defs>
<clipPath id="clip0_11_107">
<rect width="382" height="329" fill="white"/>
</clipPath>
</defs>
</svg>
